<svg width="22" height="20" viewBox="0 0 22 20" fill="none" xmlns="http://www.w3.org/2000/svg">
<path d="M20.8333 0.977296H17.2897C17.2188 0.977296 17.1507 1.00549 17.1005 1.05567C17.0503 1.10586 17.0221 1.17392 17.0221 1.2449C17.0221 1.2905 17.0365 1.3313 17.0563 1.3685V3.4073C17.0564 3.48201 17.0418 3.55601 17.0132 3.62506C16.9846 3.69411 16.9428 3.75684 16.8899 3.80967C16.8371 3.86251 16.7743 3.9044 16.7053 3.93296C16.6363 3.96152 16.5623 3.97617 16.4875 3.9761H15.3847C15.3154 3.9761 15.2467 3.96244 15.1827 3.9359C15.1186 3.90937 15.0604 3.87048 15.0114 3.82145C14.9624 3.77242 14.9235 3.71421 14.8969 3.65015C14.8704 3.58609 14.8567 3.51743 14.8567 3.4481V1.4015C14.8921 1.35685 14.9119 1.30185 14.9131 1.2449C14.9132 1.20973 14.9064 1.1749 14.8929 1.1424C14.8795 1.10989 14.8598 1.08036 14.8349 1.0555C14.8101 1.03063 14.7805 1.01092 14.748 0.997504C14.7155 0.984084 14.6807 0.977216 14.6455 0.977296H7.50254C7.43157 0.977296 7.3635 1.00549 7.31332 1.05567C7.26313 1.10586 7.23494 1.17392 7.23494 1.2449C7.23494 1.2863 7.24634 1.3241 7.26314 1.3595V3.4217C7.26314 3.49458 7.24879 3.56675 7.22089 3.63408C7.193 3.70142 7.15212 3.7626 7.10058 3.81414C7.04905 3.86568 6.98787 3.90656 6.92053 3.93445C6.85319 3.96234 6.78102 3.9767 6.70814 3.9767H5.72894C5.58031 3.9767 5.43777 3.91765 5.33268 3.81256C5.22758 3.70746 5.16854 3.56492 5.16854 3.4163V1.3745C5.19237 1.33539 5.20541 1.29068 5.20634 1.2449C5.20642 1.20973 5.19955 1.1749 5.18613 1.1424C5.17271 1.10989 5.153 1.08036 5.12814 1.0555C5.10327 1.03063 5.07374 1.01092 5.04124 0.997504C5.00874 0.984084 4.9739 0.977216 4.93874 0.977296H1.20494C1.04724 0.977454 0.896028 1.04013 0.784458 1.15159C0.672888 1.26305 0.610059 1.41419 0.609741 1.5719V19.2923C0.609741 19.6211 0.876741 19.8881 1.20494 19.8881H20.8333C20.9911 19.8878 21.1424 19.8249 21.2539 19.7132C21.3653 19.6015 21.4279 19.4501 21.4279 19.2923V1.5719C21.4276 1.4143 21.3649 1.26324 21.2534 1.1518C21.142 1.04036 20.9909 0.977613 20.8333 0.977296ZM20.8333 19.3529H1.20494C1.19701 19.3529 1.18916 19.3513 1.18184 19.3483C1.17452 19.3452 1.16788 19.3407 1.1623 19.3351C1.15672 19.3295 1.15231 19.3228 1.14933 19.3154C1.14636 19.3081 1.14486 19.3002 1.14494 19.2923V5.9285H20.8927V19.2917C20.8929 19.2996 20.8915 19.3075 20.8886 19.3149C20.8857 19.3223 20.8813 19.329 20.8758 19.3347C20.8703 19.3404 20.8637 19.3449 20.8564 19.348C20.8491 19.3512 20.8413 19.3528 20.8333 19.3529Z" fill="#10B98F"/>
</svg>
