<svg width="19" height="24" viewBox="0 0 19 24" fill="none" xmlns="http://www.w3.org/2000/svg">
<path d="M13.82 0.428982V0.412983C13.82 0.184992 14.0064 0 14.2362 0H14.2523H14.2513H18.1446C18.3803 0 18.5929 0.0979959 18.7441 0.253989C18.8252 0.330754 18.8897 0.423086 18.9337 0.52537C18.9777 0.627654 19.0002 0.737751 19 0.848965V4.7298C19 4.83933 18.9562 4.94438 18.8781 5.02183C18.8001 5.09928 18.6942 5.14279 18.5839 5.14279H18.5667H18.5677H17.6881C17.5778 5.14279 17.4719 5.09928 17.3939 5.02183C17.3158 4.94438 17.272 4.83933 17.272 4.7298V4.7128V4.7138V2.91988L13.8422 6.33474C14.9454 7.67175 15.5466 9.34745 15.543 11.0755V11.1455V11.1415L15.544 11.2415C15.5466 13.1158 14.8338 14.9216 13.549 16.2953L13.553 16.2903C12.3016 17.7078 10.557 18.6039 8.66826 18.7992L8.63602 18.8022V20.5701H9.94789C10.1776 20.5701 10.364 20.7551 10.364 20.9831V21.0001V20.9991V21.8721C10.364 21.9816 10.3202 22.0867 10.2421 22.1641C10.1641 22.2416 10.0583 22.2851 9.94789 22.2851H9.93076H9.93177H8.63602V23.587C8.63602 23.6965 8.59218 23.8016 8.51414 23.879C8.4361 23.9565 8.33025 24 8.21989 24H8.20276H8.20377H7.32415C7.21378 24 7.10794 23.9565 7.0299 23.879C6.95186 23.8016 6.90802 23.6965 6.90802 23.587V23.57V23.571V22.2851H5.59615C5.48578 22.2851 5.37994 22.2416 5.3019 22.1641C5.22386 22.0867 5.18002 21.9816 5.18002 21.8721V21.8551V21.8561V20.9831C5.18002 20.7551 5.36642 20.5701 5.59615 20.5701H5.61328H5.61227H6.91003V18.7992C5.58347 18.6651 4.3165 18.184 3.23841 17.4053L3.25957 17.4203C2.19047 16.6624 1.33164 15.6487 0.76278 14.4734L0.742628 14.4274C0.250186 13.4111 -0.00370533 12.2972 4.08612e-05 11.1695C4.08612e-05 10.9425 0.0101167 10.7166 0.0302683 10.4946L0.0282531 10.5236C0.154351 8.73962 0.920818 7.0597 2.18851 5.78876L2.1875 5.78976C2.9101 5.04155 3.77799 4.44642 4.73876 4.0403C5.69954 3.63419 6.73327 3.42551 7.77756 3.42686C8.55037 3.42686 9.29699 3.53885 10.0013 3.74784L9.94688 3.73384C10.9248 4.02392 11.8369 4.49896 12.6331 5.13279L12.618 5.12079L16.0589 1.71893H14.2351C14.1248 1.71893 14.0189 1.67542 13.9409 1.59797C13.8629 1.52052 13.819 1.41548 13.819 1.30595V1.28895V1.28995L13.82 0.428982ZM7.77454 17.1423L7.8622 17.1433C8.64284 17.1442 9.41567 16.989 10.1345 16.6867C10.8533 16.3845 11.5033 15.9416 12.0457 15.3844L12.0467 15.3824C12.6085 14.8441 13.0553 14.1989 13.3601 13.4853C13.665 12.7718 13.8218 12.0046 13.821 11.2295L13.82 11.1375V11.1425L13.821 11.0555C13.822 10.2808 13.6655 9.51382 13.361 8.80045C13.0565 8.08709 12.6102 7.44198 12.0487 6.90371L12.0467 6.90271C10.9555 5.81376 9.4441 5.14079 7.77454 5.14079C6.10497 5.14079 4.5936 5.81476 3.50239 6.90271C2.92934 7.45178 2.47619 8.11195 2.17112 8.84219C1.86605 9.57243 1.71558 10.3571 1.72905 11.1475V11.1425L1.72804 11.2295C1.72804 12.8585 2.40715 14.3304 3.50038 15.3814L3.50239 15.3824C4.04479 15.94 4.69491 16.3833 5.41388 16.6859C6.13286 16.9884 6.90593 17.144 7.68688 17.1433L7.77957 17.1423H7.77454Z" fill="#10B98F"/>
</svg>
