<svg width="20" height="20" viewBox="0 0 20 20" fill="none" xmlns="http://www.w3.org/2000/svg">
<path d="M16.6047 18.7563L19.0984 16.2602C19.2753 16.0841 19.4156 15.8748 19.5113 15.6443C19.6071 15.4139 19.6563 15.1667 19.6562 14.9172C19.6562 14.4086 19.457 13.9305 19.0984 13.5719L16.4125 10.8859C16.2364 10.7091 16.0271 10.5688 15.7967 10.473C15.5662 10.3773 15.3191 10.3281 15.0695 10.3281C14.5609 10.3281 14.0828 10.5273 13.7242 10.8859L11.7602 12.85C10.7468 12.3903 9.82495 11.7511 9.03906 10.9633C8.24936 10.1775 7.60785 9.25569 7.14531 8.24219L9.10937 6.27813C9.28623 6.10205 9.42654 5.89276 9.52227 5.6623C9.618 5.43183 9.66725 5.18472 9.66719 4.93516C9.66719 4.42656 9.46797 3.94844 9.10937 3.58984L6.42578 0.901563C6.24938 0.724495 6.03971 0.584055 5.80882 0.488324C5.57794 0.392592 5.33041 0.343459 5.08047 0.343751C4.57187 0.343751 4.09375 0.542969 3.73516 0.901563L1.24375 3.39297C0.669532 3.96484 0.34375 4.75469 0.34375 5.56563C0.34375 5.73672 0.357812 5.90078 0.385937 6.0625C0.906249 9.22188 2.58672 12.3555 5.11328 14.8844C7.6375 17.4109 10.7687 19.0891 13.9375 19.6164C14.9055 19.7758 15.9016 19.4547 16.6047 18.7563V18.7563Z" fill="#10B98F"/>
</svg>
